<?xml version="1.0" standalone="no"?><!DOCTYPE svg PUBLIC "-//W3C//DTD SVG 1.1//EN" "http://www.w3.org/Graphics/SVG/1.1/DTD/svg11.dtd"><svg t="1732787786408" class="icon" viewBox="0 0 1024 1024" version="1.1" xmlns="http://www.w3.org/2000/svg" p-id="7288" xmlns:xlink="http://www.w3.org/1999/xlink" width="200" height="200"><path d="M941.271579 683.924211a185.936842 185.936842 0 0 0-132.419368-54.433685c-7.868632 0-15.737263 0.538947-23.605895 1.455158l-139.802948-139.856842A322.829474 322.829474 0 0 0 350.639158 36.810105c-49.098105 0-95.178105 11.802947-136.838737 31.420632l214.016 213.962105-152.198737 152.252632L60.901053 219.728842a320.565895 320.565895 0 0 0-33.091369 139.964632 322.829474 322.829474 0 0 0 322.883369 322.829473c46.834526 0 91.243789-10.132211 131.395368-28.079158l139.856842 139.910737a187.392 187.392 0 0 0 52.978526 156.025263c36.756211 36.756211 84.938105 55.134316 133.173895 55.134316s96.417684-18.432 133.173895-55.134316a188.416 188.416 0 0 0 0-266.455578z m-37.99579 228.298105a133.443368 133.443368 0 0 1-95.178105 39.343158 133.874526 133.874526 0 0 1-95.178105-39.343158 133.605053 133.605053 0 0 1-37.564632-111.400421l3.17979-26.031158-18.53979-18.53979-128.808421-128.808421-39.558737-39.558737c-16.168421 10.078316-33.468632 18.054737-51.631157 24.468211a264.353684 264.353684 0 0 1-89.303579 16.437895 269.365895 269.365895 0 0 1-269.042527-269.042527c0-13.365895 1.077895-26.677895 3.233685-39.936l152.683789 152.68379 38.049684 38.049684 38.049684-38.049684 152.198737-152.198737 38.103579-38.049684-38.049684-38.049684-151.013053-151.013053c11.910737-1.724632 23.821474-2.586947 35.786106-2.586947A269.419789 269.419789 0 0 1 619.789474 359.693474a265.701053 265.701053 0 0 1-16.437895 89.303579 271.629474 271.629474 0 0 1-24.522105 51.631158l39.558737 39.612631 128.862315 128.808421 18.53979 18.53979 25.977263-3.233685a132.419368 132.419368 0 0 1 111.454316 37.618527c52.439579 52.439579 52.439579 137.808842 0.053894 190.248421z" p-id="7289"></path></svg>