<?xml version="1.0" standalone="no"?><!DOCTYPE svg PUBLIC "-//W3C//DTD SVG 1.1//EN" "http://www.w3.org/Graphics/SVG/1.1/DTD/svg11.dtd"><svg t="1732789035932" class="icon" viewBox="0 0 1024 1024" version="1.1" xmlns="http://www.w3.org/2000/svg" p-id="11230" xmlns:xlink="http://www.w3.org/1999/xlink" width="200" height="200"><path d="M684.8 552.533333l-123.733333-100.266666c-10.666667-8.533333-23.466667-14.933333-38.4-14.933334s-27.733333 6.4-40.533334 14.933334l-113.066666 100.266666c-17.066667 14.933333-19.2 42.666667-4.266667 61.866667 14.933333 17.066667 42.666667 19.2 61.866667 4.266667l57.6-51.2v170.666666c0 23.466667 19.2 42.666667 42.666666 42.666667s42.666667-19.2 42.666667-42.666667v-166.4l59.733333 46.933334c8.533333 6.4 17.066667 8.533333 27.733334 8.533333 12.8 0 25.6-6.4 34.133333-17.066667 14.933333-17.066667 10.666667-42.666667-6.4-57.6z" fill="#222222" p-id="11231"></path><path d="M806.4 309.333333H584.533333l-59.733333-98.133333c-2.133333-2.133333-2.133333-4.266667-4.266667-4.266667-23.466667-29.866667-59.733333-46.933333-98.133333-46.933333H185.6c-23.466667 0-42.666667 19.2-42.666667 42.666667v578.133333c0 57.6 46.933333 104.533333 104.533334 104.533333h556.8c57.6 0 104.533333-46.933333 104.533333-104.533333V416c2.133333-57.6-44.8-106.666667-102.4-106.666667z m-381.866667-64c12.8 0 23.466667 4.266667 32 12.8l29.866667 51.2H228.266667v-64h196.266666z m401.066667 535.466667c0 10.666667-8.533333 19.2-19.2 19.2H249.6c-10.666667 0-19.2-8.533333-19.2-19.2V394.666667h578.133333c10.666667 0 19.2 8.533333 19.2 19.2v366.933333z" fill="#222222" p-id="11232"></path></svg>